PathFileType	4	(x/y/z)	S08_P20_T05
DataRate	CameraRate	NumFrames	NumMarkers	Units	OrigDataRate	OrigDataStartFrame	OrigNumFrames
240	240	4	51	mm	240	98	388
Frame#	Time	Sternum			R.Acromium			L.Acromium			Top.Head			R.ASIS			L.ASIS			R.PSIS			L.PSIS			R.Great.Tro			L.Great.Tro			R.Iliac.Crest			L.Iliac.Crest			V.Sacral			R.Thigh.Upper.Post			R.Thigh.Lower.Ant			R.Thigh.Lower.Post			R.Thigh.Upper.Ant			R.Knee.Lat			R.Knee.Med			R.Shank.Upper.Post			R.Shank.Lower.Ant			R.Shank.Lower.Post			R.Shank.Upper.Ant			R.Ankle.Lat			R.Ankle.Med			R.Heel.Upper			R.Heel.Med			R.Heel.Lat			R.Toe.Lat			R.Toe.Med			R.Toe.Tip			L.Thigh.Upper.Post			L.Thigh.Lower.Ant			L.Thigh.Lower.Post			L.Thigh.Upper.Ant			L.Knee.Lat			L.Knee.Med			L.Shank.Upper.Post			L.Shank.Lower.Ant			L.Shank.Lower.Post			L.Shank.Upper.Ant			L.Ankle.Lat			L.Ankle.Med			L.Heel.Upper			L.Heel.Med			L.Heel.Lat			L.Toe.Lat			L.Toe.Med			L.Toe.Tip			Cervical.Spine			Back			
		X1	Y1	Z1	X2	Y2	Z2	X3	Y3	Z3	X4	Y4	Z4	X5	Y5	Z5	X6	Y6	Z6	X7	Y7	Z7	X8	Y8	Z8	X9	Y9	Z9	X10	Y10	Z10	X11	Y11	Z11	X12	Y12	Z12	X13	Y13	Z13	X14	Y14	Z14	X15	Y15	Z15	X16	Y16	Z16	X17	Y17	Z17	X18	Y18	Z18	X19	Y19	Z19	X20	Y20	Z20	X21	Y21	Z21	X22	Y22	Z22	X23	Y23	Z23	X24	Y24	Z24	X25	Y25	Z25	X26	Y26	Z26	X27	Y27	Z27	X28	Y28	Z28	X29	Y29	Z29	X30	Y30	Z30	X31	Y31	Z31	X32	Y32	Z32	X33	Y33	Z33	X34	Y34	Z34	X35	Y35	Z35	X36	Y36	Z36	X37	Y37	Z37	X38	Y38	Z38	X39	Y39	Z39	X40	Y40	Z40	X41	Y41	Z41	X42	Y42	Z42	X43	Y43	Z43	X44	Y44	Z44	X45	Y45	Z45	X46	Y46	Z46	X47	Y47	Z47	X48	Y48	Z48	X49	Y49	Z49	X50	Y50	Z50	X51	Y51	Z51	

98	0.40417	-811.92	1229.1	285.94	-931.03	1463.5	463.56	-942.96	1498.1	129.79	-917.93	1784.7	318.76	-846.21	1019.3	392.24	-846.26	1017.4	161.36	-1048.9	1037.4	322.46	-1044.4	1042.6	229.54	-894.01	909.57	466.85	-948.36	913.8	97.637	-942.78	1083.8	442.25	-940.59	1098.8	135.54	-1063	999.83	276.06	-834.18	713.49	450.1	-724.19	654.11	415.86	-792.22	633.9	428.64	-760.85	739.96	435.94	-719.78	555.38	410.62	-749.5	547.21	286.79	-760.77	366.74	421.73	-694.36	310.18	398.41	-753.82	290.07	415.09	-701.11	388.3	408.7	-738.29	121.43	381.78	-708.63	141.29	303.85	-781.28	77.541	331.65	-761.39	55.216	302.86	-770.6	51.119	364.08	NaN	NaN	NaN	-579.55	92.674	298.99	-522.56	118.56	348.18	-1008.6	718.4	117.37	-939.56	614.15	141.29	-1006.3	628.82	134.46	-938.1	700.49	116.49	-1020.8	524.69	158.76	-1012	523.99	284.19	-1114.2	359.35	162.06	-1068.3	259.87	186.56	-1130.1	289.56	178.98	-1058.1	332.53	168.44	-1143.8	112.22	204.34	-1121.6	112.22	289.55	-1200.8	82.32	253.42	-1190.9	46.616	281.96	-1195.2	57.894	218.51	-1021	39.697	184.3	-1003.2	39.299	299.62	-936.9	52.391	251.42	-1003.3	1522.7	289.95	-1052.2	1241	291.54
99	0.40833	-806.43	1228	286.14	-925.63	1462.5	463.69	-937.19	1497.2	129.88	-912.55	1783.7	318.99	-840.74	1018.4	392.43	-840.9	1016.3	161.5	-1043.4	1036.5	322.73	-1038.8	1041.7	229.86	-888.72	908.74	467.08	-943.42	913.07	97.758	-937.33	1082.9	442.46	-935.08	1097.9	135.74	-1057.6	998.97	276.3	-829.44	712.36	450.51	-719.57	652.91	416.05	-787.6	632.74	428.95	-756.09	738.76	436.29	-714.75	554.42	410.56	-744.9	546.01	286.79	-752.39	365.16	421.65	-684.99	309.8	397.93	-744.05	288.59	414.82	-693.15	387.83	408.41	-725.18	120.06	381.05	-696.11	140.52	303.04	-767.49	75.357	331	-747.2	53.338	302.16	-756.16	49.084	363.42	NaN	NaN	NaN	-566.1	94.341	297.73	-509.44	121.4	346.72	-1004.8	718.22	117.65	-936.24	613.58	141.27	-1003	628.66	134.65	-934.38	699.92	116.53	-1018.1	524.53	158.89	-1008.9	523.68	284.32	-1112.4	359.8	162.21	-1067.2	259.95	186.6	-1128.9	289.97	179.3	-1056.6	332.49	168.6	-1143.4	112.69	204.52	-1121.1	112.59	289.67	-1200.6	82.827	253.59	-1190.8	47.112	282.16	-1195.1	58.382	218.71	-1021	39.633	184.32	-1003.1	39.267	299.59	-936.75	52.177	251.38	-997.79	1521.8	289.94	-1046.7	1240	291.52
100	0.4125	-800.92	1227	286.36	-920.23	1461.5	463.82	-931.43	1496.2	129.97	-907.17	1782.8	319.23	-835.26	1017.5	392.63	-835.52	1015.3	161.64	-1037.9	1035.7	323	-1033.3	1040.9	230.2	-883.43	907.9	467.31	-938.46	912.33	97.884	-931.83	1082	442.66	-929.55	1096.9	135.95	-1052.1	998.11	276.55	-824.66	711.21	450.94	-714.91	651.69	416.23	-782.94	631.58	429.27	-751.29	737.54	436.66	-709.75	553.41	410.49	-740.33	544.81	286.77	-744.23	363.62	421.54	-675.9	309.43	397.45	-734.57	287.17	414.53	-685.39	387.34	408.13	-712.52	118.81	380.32	-684.03	139.83	302.24	-754.15	73.322	330.33	-733.48	51.59	301.46	-742.21	47.208	362.75	NaN	NaN	NaN	-553.14	95.98	296.52	-496.83	124.18	345.33	-1000.9	718.01	117.91	-932.78	613	141.26	-999.49	628.45	134.85	-930.56	699.34	116.59	-1015.2	524.33	159.03	-1005.6	523.34	284.45	-1110.4	360.25	162.34	-1065.9	260.01	186.64	-1127.7	290.37	179.62	-1055	332.44	168.76	-1143	113.16	204.68	-1120.7	113	289.77	-1200.3	83.382	253.72	-1190.6	47.659	282.32	-1195	58.91	218.88	-1021	39.562	184.35	-1002.9	39.239	299.57	-936.59	51.953	251.35	-992.23	1520.9	289.95	-1041.1	1239	291.51
101	0.41667	-795.4	1225.9	286.59	-914.82	1460.5	463.97	-925.67	1495.3	130.09	-901.78	1781.8	319.49	-829.75	1016.6	392.85	-830.12	1014.2	161.79	-1032.4	1034.8	323.29	-1027.8	1040.1	230.56	-878.13	907.04	467.55	-933.46	911.58	98.017	-926.29	1081	442.87	-924	1096	136.17	-1046.6	997.23	276.81	-819.84	710.06	451.37	-710.22	650.47	416.39	-778.25	630.42	429.57	-746.46	736.32	437.03	-704.77	552.37	410.42	-735.77	543.59	286.73	-736.29	362.13	421.42	-667.1	309.05	397	-725.41	285.8	414.22	-677.85	386.81	407.84	-700.33	117.65	379.59	-672.41	139.2	301.43	-741.29	71.428	329.65	-720.28	49.962	300.76	-728.79	45.481	362.08	NaN	NaN	NaN	-540.69	97.564	295.36	-484.75	126.86	344.01	-996.8	717.77	118.16	-929.16	612.4	141.25	-995.87	628.19	135.07	-926.6	698.74	116.65	-1012	524.1	159.17	-1002.2	522.96	284.59	-1108.3	360.7	162.45	-1064.6	260.06	186.68	-1126.4	290.77	179.93	-1053.3	332.39	168.92	-1142.7	113.63	204.83	-1120.2	113.44	289.85	-1200.1	83.989	253.8	-1190.5	48.264	282.46	-1194.9	59.484	219.02	-1021	39.483	184.37	-1002.8	39.217	299.55	-936.43	51.718	251.31	-986.66	1520	289.98	-1035.5	1238	291.52
